<svg width="77" height="17" fill="none" xmlns="http://www.w3.org/2000/svg"><path d="M6.414 1.744c2.053 0 3.63.572 4.73 1.716 1.1 1.144 1.65 2.787 1.65 4.928 0 2.508-.616 4.43-1.848 5.764-1.232 1.335-2.992 2.002-5.28 2.002-.69 0-1.518-.015-2.486-.044A76.153 76.153 0 01.716 16l.154-4.224-.154-9.944 5.698-.088zm-.22 12.1c2.332 0 3.498-1.591 3.498-4.774 0-1.73-.286-2.985-.858-3.762-.557-.792-1.437-1.188-2.64-1.188-.777 0-1.606.037-2.486.11l-.132 7.282.066 2.178a26.42 26.42 0 002.552.154zm16.648-2.596l-5.94.044c.132 1.833 1.063 2.75 2.794 2.75.91 0 1.921-.257 3.036-.77l.242.154-.44 2.178c-1.115.41-2.163.616-3.146.616-1.613 0-2.882-.47-3.806-1.408-.91-.939-1.364-2.237-1.364-3.894 0-1.643.447-2.94 1.342-3.894.895-.968 2.105-1.452 3.63-1.452 1.305 0 2.31.36 3.014 1.078.719.704 1.078 1.694 1.078 2.97 0 .337-.037.763-.11 1.276l-.33.352zM20.73 9.29c0-.587-.132-1.027-.396-1.32-.264-.308-.653-.462-1.166-.462-.572 0-1.049.19-1.43.572-.381.367-.638.902-.77 1.606l3.718-.088.044-.308zm9.065-3.718c1.496 0 2.64.44 3.432 1.32.792.88 1.188 2.149 1.188 3.806 0 1.79-.425 3.16-1.276 4.114-.85.939-2.075 1.408-3.674 1.408-1.496 0-2.64-.44-3.432-1.32-.792-.88-1.188-2.149-1.188-3.806 0-1.79.425-3.153 1.276-4.092.85-.953 2.075-1.43 3.674-1.43zm-.198 1.98c-.704 0-1.217.235-1.54.704-.308.47-.462 1.225-.462 2.266 0 1.35.161 2.31.484 2.882.323.572.85.858 1.584.858.704 0 1.21-.227 1.518-.682.323-.47.484-1.232.484-2.288 0-1.335-.169-2.288-.506-2.86-.323-.587-.843-.88-1.562-.88zm12.598-1.804c.132 0 .316.015.55.044v2.706l-.308.11a2.117 2.117 0 00-.814-.154c-.85 0-1.62.55-2.31 1.65v1.386l.154 4.51h-2.926l.176-4.224-.132-5.808 2.772-.242-.022 2.002h.176c.719-1.32 1.614-1.98 2.684-1.98zM49.764.512a9.99 9.99 0 011.914.198l-.198 2.178-.198.132c-.69-.293-1.291-.44-1.804-.44-.91 0-1.372.52-1.386 1.562l-.022 1.716h2.486l.088.154-.132 1.606h-2.486l-.066 3.872.154 4.51h-2.926l.176-4.246-.044-4.136h-1.54l-.11-.154.154-1.606h1.474l-.022-1.21c0-1.32.388-2.34 1.166-3.058C47.234.871 48.34.512 49.764.512zm9.871 10.736l-5.94.044c.132 1.833 1.063 2.75 2.794 2.75.91 0 1.921-.257 3.036-.77l.242.154-.44 2.178c-1.115.41-2.163.616-3.146.616-1.613 0-2.882-.47-3.806-1.408-.91-.939-1.364-2.237-1.364-3.894 0-1.643.447-2.94 1.342-3.894.895-.968 2.105-1.452 3.63-1.452 1.305 0 2.31.36 3.014 1.078.719.704 1.078 1.694 1.078 2.97 0 .337-.037.763-.11 1.276l-.33.352zM57.523 9.29c0-.587-.132-1.027-.396-1.32-.264-.308-.653-.462-1.166-.462-.572 0-1.049.19-1.43.572-.381.367-.638.902-.77 1.606l3.718-.088.044-.308zm8.845-3.718c1.13 0 2.01.257 2.64.77.645.499.968 1.203.968 2.112 0 .264-.044 1.1-.132 2.508-.015.41-.037.836-.066 1.276-.03.425-.044.792-.044 1.1 0 .25.037.425.11.528.073.088.205.132.396.132.147 0 .337-.03.572-.088l.22.176-.264 1.54a3.499 3.499 0 01-1.606.55c-.44-.044-.807-.198-1.1-.462-.293-.279-.491-.66-.594-1.144h-.154c-.733.777-1.489 1.32-2.266 1.628-1.056-.015-1.885-.293-2.486-.836-.601-.543-.902-1.283-.902-2.222 0-.733.183-1.305.55-1.716.381-.425.953-.711 1.716-.858l3.366-.638v-.902c0-.953-.47-1.43-1.408-1.43-.455 0-.939.103-1.452.308-.499.205-1.063.528-1.694.968l-.22-.132-.33-1.936a7.834 7.834 0 012.024-.902 7.332 7.332 0 012.156-.33zm-1.43 6.336c-.235.059-.41.161-.528.308-.103.132-.154.337-.154.616 0 .381.103.682.308.902.205.205.491.308.858.308.572 0 1.173-.337 1.804-1.012l.044-1.628-2.332.506zm11.106-.418l.154 4.51h-2.926l.154-4.246L73.294.776l2.926-.22-.176 10.934z" fill="#fff"/></svg>